G04 #@! TF.FileFunction,Copper,L2,Bot,Signal*
%FSLAX46Y46*%
G04 Gerber Fmt 4.6, Leading zero omitted, Abs format (unit mm)*
G04 Created by KiCad (PCBNEW 4.0.5+dfsg1-4) date Mon Jul  9 17:35:54 2018*
%MOMM*%
%LPD*%
G01*
G04 APERTURE LIST*
%ADD10C,0.100000*%
%ADD11C,0.750000*%
%ADD12R,1.700000X1.700000*%
%ADD13R,2.400000X1.600000*%
%ADD14R,2.000000X1.700000*%
%ADD15C,3.000000*%
%ADD16C,1.500000*%
G04 APERTURE END LIST*
D10*
D11*
X66000000Y50448571D02*
X65857143Y50591429D01*
X65428571Y50877143D01*
X65142857Y51020000D01*
X64714286Y51162857D01*
X64000000Y51305714D01*
X63428571Y51305714D01*
X62714286Y51162857D01*
X62285714Y51020000D01*
X62000000Y50877143D01*
X61571429Y50591429D01*
X61428571Y50448571D01*
X64714286Y48020000D02*
X64857143Y48305714D01*
X64857143Y48877143D01*
X64714286Y49162857D01*
X64571429Y49305714D01*
X64285714Y49448571D01*
X63428571Y49448571D01*
X63142857Y49305714D01*
X63000000Y49162857D01*
X62857143Y48877143D01*
X62857143Y48305714D01*
X63000000Y48020000D01*
X66000000Y47020000D02*
X65857143Y46877142D01*
X65428571Y46591428D01*
X65142857Y46448571D01*
X64714286Y46305714D01*
X64000000Y46162857D01*
X63428571Y46162857D01*
X62714286Y46305714D01*
X62285714Y46448571D01*
X62000000Y46591428D01*
X61571429Y46877142D01*
X61428571Y47020000D01*
X62142857Y44877142D02*
X62000000Y44734285D01*
X61857143Y44448571D01*
X61857143Y43734285D01*
X62000000Y43448571D01*
X62142857Y43305714D01*
X62428571Y43162857D01*
X62714286Y43162857D01*
X63142857Y43305714D01*
X64857143Y45020000D01*
X64857143Y43162857D01*
X61857143Y41305714D02*
X61857143Y41019999D01*
X62000000Y40734285D01*
X62142857Y40591428D01*
X62428571Y40448571D01*
X63000000Y40305714D01*
X63714286Y40305714D01*
X64285714Y40448571D01*
X64571429Y40591428D01*
X64714286Y40734285D01*
X64857143Y41019999D01*
X64857143Y41305714D01*
X64714286Y41591428D01*
X64571429Y41734285D01*
X64285714Y41877142D01*
X63714286Y42019999D01*
X63000000Y42019999D01*
X62428571Y41877142D01*
X62142857Y41734285D01*
X62000000Y41591428D01*
X61857143Y41305714D01*
X64857143Y37448571D02*
X64857143Y39162856D01*
X64857143Y38305714D02*
X61857143Y38305714D01*
X62285714Y38591428D01*
X62571429Y38877142D01*
X62714286Y39162856D01*
X63142857Y35734285D02*
X63000000Y36019999D01*
X62857143Y36162856D01*
X62571429Y36305713D01*
X62428571Y36305713D01*
X62142857Y36162856D01*
X62000000Y36019999D01*
X61857143Y35734285D01*
X61857143Y35162856D01*
X62000000Y34877142D01*
X62142857Y34734285D01*
X62428571Y34591428D01*
X62571429Y34591428D01*
X62857143Y34734285D01*
X63000000Y34877142D01*
X63142857Y35162856D01*
X63142857Y35734285D01*
X63285714Y36019999D01*
X63428571Y36162856D01*
X63714286Y36305713D01*
X64285714Y36305713D01*
X64571429Y36162856D01*
X64714286Y36019999D01*
X64857143Y35734285D01*
X64857143Y35162856D01*
X64714286Y34877142D01*
X64571429Y34734285D01*
X64285714Y34591428D01*
X63714286Y34591428D01*
X63428571Y34734285D01*
X63285714Y34877142D01*
X63142857Y35162856D01*
X64857143Y31019999D02*
X61857143Y31019999D01*
X61857143Y29877142D01*
X62000000Y29591428D01*
X62142857Y29448571D01*
X62428571Y29305714D01*
X62857143Y29305714D01*
X63142857Y29448571D01*
X63285714Y29591428D01*
X63428571Y29877142D01*
X63428571Y31019999D01*
X64000000Y28162856D02*
X64000000Y26734285D01*
X64857143Y28448571D02*
X61857143Y27448571D01*
X64857143Y26448571D01*
X64571429Y23734285D02*
X64714286Y23877142D01*
X64857143Y24305713D01*
X64857143Y24591427D01*
X64714286Y25019999D01*
X64428571Y25305713D01*
X64142857Y25448570D01*
X63571429Y25591427D01*
X63142857Y25591427D01*
X62571429Y25448570D01*
X62285714Y25305713D01*
X62000000Y25019999D01*
X61857143Y24591427D01*
X61857143Y24305713D01*
X62000000Y23877142D01*
X62142857Y23734285D01*
X64857143Y22448570D02*
X61857143Y22448570D01*
X64000000Y21448570D01*
X61857143Y20448570D01*
X64857143Y20448570D01*
X64000000Y19162856D02*
X64000000Y17734285D01*
X64857143Y19448571D02*
X61857143Y18448571D01*
X64857143Y17448571D01*
X64857143Y16448570D02*
X61857143Y16448570D01*
X64857143Y14734285D01*
X61857143Y14734285D01*
D12*
X22860000Y45720000D03*
X20320000Y45720000D03*
X17780000Y45720000D03*
X7620000Y43180000D03*
X7620000Y40640000D03*
X7620000Y38100000D03*
X7620000Y35560000D03*
X7620000Y33020000D03*
X7620000Y30480000D03*
X7620000Y27940000D03*
X7620000Y25400000D03*
X7620000Y22860000D03*
X7620000Y20320000D03*
X7620000Y17780000D03*
X7620000Y15240000D03*
X7620000Y12700000D03*
X78740000Y12700000D03*
X78740000Y15240000D03*
X78740000Y17780000D03*
X78740000Y20320000D03*
X78740000Y22860000D03*
X78740000Y25400000D03*
X78740000Y27940000D03*
X78740000Y30480000D03*
X78740000Y33020000D03*
X78740000Y35560000D03*
X78740000Y38100000D03*
X78740000Y40640000D03*
X53340000Y43180000D03*
X53340000Y40640000D03*
X53340000Y38100000D03*
X53340000Y35560000D03*
X53340000Y33020000D03*
X53340000Y30480000D03*
X53340000Y27940000D03*
X53340000Y25400000D03*
X53340000Y22860000D03*
X53340000Y20320000D03*
X53340000Y17780000D03*
X53340000Y15240000D03*
X53340000Y12700000D03*
D13*
X58420000Y45720000D03*
X73660000Y12700000D03*
X58420000Y43180000D03*
X73660000Y15240000D03*
X58420000Y40640000D03*
X73660000Y17780000D03*
X58420000Y38100000D03*
X73660000Y20320000D03*
X58420000Y35560000D03*
X73660000Y22860000D03*
X58420000Y33020000D03*
X73660000Y25400000D03*
X58420000Y30480000D03*
X73660000Y27940000D03*
X58420000Y27940000D03*
X73660000Y30480000D03*
X58420000Y25400000D03*
X73660000Y33020000D03*
X58420000Y22860000D03*
X73660000Y35560000D03*
X58420000Y20320000D03*
X73660000Y38100000D03*
X58420000Y17780000D03*
X73660000Y40640000D03*
X58420000Y15240000D03*
X73660000Y43180000D03*
X58420000Y12700000D03*
X73660000Y45720000D03*
D12*
X33020000Y12700000D03*
X33020000Y15240000D03*
X33020000Y17780000D03*
X33020000Y20320000D03*
X33020000Y22860000D03*
X33020000Y25400000D03*
X33020000Y27940000D03*
X33020000Y30480000D03*
X33020000Y33020000D03*
X33020000Y35560000D03*
X33020000Y38100000D03*
X33020000Y40640000D03*
D13*
X12700000Y40640000D03*
X27940000Y12700000D03*
X12700000Y38100000D03*
X27940000Y15240000D03*
X12700000Y35560000D03*
X27940000Y17780000D03*
X12700000Y33020000D03*
X27940000Y20320000D03*
X12700000Y30480000D03*
X27940000Y22860000D03*
X12700000Y27940000D03*
X27940000Y25400000D03*
X12700000Y25400000D03*
X27940000Y27940000D03*
X12700000Y22860000D03*
X27940000Y30480000D03*
X12700000Y20320000D03*
X27940000Y33020000D03*
X12700000Y17780000D03*
X27940000Y35560000D03*
X12700000Y15240000D03*
X27940000Y38100000D03*
X12700000Y12700000D03*
X27940000Y40640000D03*
D14*
X22860000Y7620000D03*
X17780000Y7620000D03*
X68580000Y7620000D03*
X63500000Y7620000D03*
D15*
X81280000Y5080000D03*
X50800000Y5080000D03*
X35560000Y5080000D03*
X5080000Y5080000D03*
X35560000Y48260000D03*
X81280000Y48260000D03*
D16*
X7620000Y43180000D02*
X7620000Y48260000D01*
X20320000Y48260000D02*
X20320000Y45720000D01*
X7620000Y48260000D02*
X20320000Y48260000D01*
X7620000Y40640000D02*
X12700000Y40640000D01*
X7620000Y38100000D02*
X12700000Y38100000D01*
X7620000Y35560000D02*
X12700000Y35560000D01*
X7620000Y33020000D02*
X12700000Y33020000D01*
X7620000Y30480000D02*
X12700000Y30480000D01*
X7620000Y27940000D02*
X12700000Y27940000D01*
X7620000Y25400000D02*
X12700000Y25400000D01*
X7620000Y22860000D02*
X12700000Y22860000D01*
X7620000Y20320000D02*
X12700000Y20320000D01*
X7620000Y17780000D02*
X12700000Y17780000D01*
X58420000Y12700000D02*
X63500000Y12700000D01*
X63500000Y12700000D02*
X63500000Y7620000D01*
X17780000Y7620000D02*
X17780000Y12700000D01*
X17780000Y45720000D02*
X17780000Y12700000D01*
X17780000Y12700000D02*
X12700000Y12700000D01*
X53340000Y12700000D02*
X58420000Y12700000D01*
X7620000Y12700000D02*
X12700000Y12700000D01*
X27940000Y12700000D02*
X33020000Y12700000D01*
X27940000Y15240000D02*
X33020000Y15240000D01*
X27940000Y17780000D02*
X33020000Y17780000D01*
X27940000Y20320000D02*
X33020000Y20320000D01*
X27940000Y22860000D02*
X33020000Y22860000D01*
X27940000Y25400000D02*
X33020000Y25400000D01*
X27940000Y27940000D02*
X33020000Y27940000D01*
X27940000Y30480000D02*
X33020000Y30480000D01*
X27940000Y33020000D02*
X33020000Y33020000D01*
X27940000Y35560000D02*
X33020000Y35560000D01*
X27940000Y38100000D02*
X33020000Y38100000D01*
X68580000Y7620000D02*
X68580000Y43180000D01*
X68580000Y43180000D02*
X73660000Y43180000D01*
X22860000Y7620000D02*
X22860000Y40640000D01*
X22860000Y45720000D02*
X22860000Y40640000D01*
X22860000Y40640000D02*
X27940000Y40640000D01*
X78740000Y40640000D02*
X73660000Y40640000D01*
X73660000Y40640000D02*
X73660000Y43180000D01*
X73660000Y43180000D02*
X73660000Y45720000D01*
X27940000Y40640000D02*
X33020000Y40640000D01*
X53340000Y43180000D02*
X58420000Y43180000D01*
X53340000Y40640000D02*
X58420000Y40640000D01*
X53340000Y38100000D02*
X58420000Y38100000D01*
X53340000Y35560000D02*
X58420000Y35560000D01*
X53340000Y33020000D02*
X58420000Y33020000D01*
X53340000Y30480000D02*
X58420000Y30480000D01*
X58420000Y27940000D02*
X53340000Y27940000D01*
X53340000Y25400000D02*
X58420000Y25400000D01*
X53340000Y22860000D02*
X58420000Y22860000D01*
X53340000Y20320000D02*
X58420000Y20320000D01*
X53340000Y17780000D02*
X58420000Y17780000D01*
X53340000Y15240000D02*
X58420000Y15240000D01*
X73660000Y12700000D02*
X78740000Y12700000D01*
X78740000Y15240000D02*
X73660000Y15240000D01*
X78740000Y17780000D02*
X73660000Y17780000D01*
X78740000Y20320000D02*
X73660000Y20320000D01*
X78740000Y22860000D02*
X73660000Y22860000D01*
X78740000Y25400000D02*
X73660000Y25400000D01*
X78740000Y27940000D02*
X73660000Y27940000D01*
X78740000Y30480000D02*
X73660000Y30480000D01*
X78740000Y33020000D02*
X73660000Y33020000D01*
X78740000Y35560000D02*
X73660000Y35560000D01*
X78740000Y38100000D02*
X73660000Y38100000D01*
X7620000Y15240000D02*
X12700000Y15240000D01*
M02*
