M48
;DRILL file {KiCad 4.0.5+dfsg1-4} date Mon Jul  9 17:36:04 2018
;FORMAT={-:-/ absolute / inch / decimal}
FMAT,2
INCH,TZ
T1C0.031
T2C0.032
T3C0.039
T4C0.112
%
G90
G05
M72
T1
X0.5Y1.6
X0.5Y1.5
X0.5Y1.4
X0.5Y1.3
X0.5Y1.2
X0.5Y1.1
X0.5Y1.
X0.5Y0.9
X0.5Y0.8
X0.5Y0.7
X0.5Y0.6
X0.5Y0.5
X1.1Y1.6
X1.1Y1.5
X1.1Y1.4
X1.1Y1.3
X1.1Y1.2
X1.1Y1.1
X1.1Y1.
X1.1Y0.9
X1.1Y0.8
X1.1Y0.7
X1.1Y0.6
X1.1Y0.5
X2.3Y1.8
X2.3Y1.7
X2.3Y1.6
X2.3Y1.5
X2.3Y1.4
X2.3Y1.3
X2.3Y1.2
X2.3Y1.1
X2.3Y1.
X2.3Y0.9
X2.3Y0.8
X2.3Y0.7
X2.3Y0.6
X2.3Y0.5
X2.9Y1.8
X2.9Y1.7
X2.9Y1.6
X2.9Y1.5
X2.9Y1.4
X2.9Y1.3
X2.9Y1.2
X2.9Y1.1
X2.9Y1.
X2.9Y0.9
X2.9Y0.8
X2.9Y0.7
X2.9Y0.6
X2.9Y0.5
T2
X0.7Y0.3
X0.9Y0.3
X2.5Y0.3
X2.7Y0.3
T3
X0.3Y1.7
X0.3Y1.6
X0.3Y1.5
X0.3Y1.4
X0.3Y1.3
X0.3Y1.2
X0.3Y1.1
X0.3Y1.
X0.3Y0.9
X0.3Y0.8
X0.3Y0.7
X0.3Y0.6
X0.3Y0.5
X0.7Y1.8
X0.8Y1.8
X0.9Y1.8
X1.3Y1.6
X1.3Y1.5
X1.3Y1.4
X1.3Y1.3
X1.3Y1.2
X1.3Y1.1
X1.3Y1.
X1.3Y0.9
X1.3Y0.8
X1.3Y0.7
X1.3Y0.6
X1.3Y0.5
X2.1Y1.7
X2.1Y1.6
X2.1Y1.5
X2.1Y1.4
X2.1Y1.3
X2.1Y1.2
X2.1Y1.1
X2.1Y1.
X2.1Y0.9
X2.1Y0.8
X2.1Y0.7
X2.1Y0.6
X2.1Y0.5
X3.1Y1.6
X3.1Y1.5
X3.1Y1.4
X3.1Y1.3
X3.1Y1.2
X3.1Y1.1
X3.1Y1.
X3.1Y0.9
X3.1Y0.8
X3.1Y0.7
X3.1Y0.6
X3.1Y0.5
T4
X0.2Y0.2
X1.4Y1.9
X1.4Y0.2
X2.Y0.2
X3.2Y1.9
X3.2Y0.2
T0
M30
